<svg id="Calque_1" data-name="Calque 1" xmlns="http://www.w3.org/2000/svg" viewBox="0 0 130 7.24"><defs><style>.cls-1{fill:#006d77;}</style></defs><path class="cls-1" d="M73.51,4.71c-.91.69-2,.07-2.64-.44A4,4,0,0,0,68.6,3.4c-2.93-.1-3.27,3.21-3.27,3.21s1.87-3.13,4.09-2.05a3.42,3.42,0,0,1,1.81,2.68,1.93,1.93,0,0,0-.11-1.85A1.77,1.77,0,0,0,73.51,4.71Z"/><path class="cls-1" d="M55.88,4.71c.91.69,2,.07,2.64-.44a3.92,3.92,0,0,1,2.27-.87c2.93-.1,3.27,3.21,3.27,3.21S62.19,3.48,60,4.56a3.42,3.42,0,0,0-1.81,2.68,1.93,1.93,0,0,1,.11-1.85A1.77,1.77,0,0,1,55.88,4.71Z"/><path class="cls-1" d="M67.44,2.7c-1-.2-2,1.07-2.56,2.1l-.19.36c0-.11-.12-.23-.19-.35C63.93,3.78,63,2.5,62,2.7c.81-1.26,2.06-.6,2.74,1.44C65.38,2.1,66.63,1.44,67.44,2.7Z"/><path class="cls-1" d="M64.29,1.46A2.58,2.58,0,0,1,64.69,0a2.56,2.56,0,0,1,.41,1.46A.41.41,0,0,1,64.29,1.46Z"/><path class="cls-1" d="M2.71.89c-.2,1,1.09,2,2.12,2.54l.36.19-.35.19c-1,.57-2.33,1.51-2.13,2.54-1.26-.8-.6-2,1.45-2.73C2.11,2.94,1.45,1.69,2.71.89Z"/><path class="cls-1" d="M1.47,4A2.62,2.62,0,0,1,0,3.62a2.62,2.62,0,0,1,1.47-.4A.4.4,0,0,1,1.47,4Z"/><path class="cls-1" d="M127.29.89c.2,1-1.09,2-2.12,2.54l-.36.19.35.19c1,.57,2.33,1.51,2.13,2.54,1.26-.8.6-2-1.45-2.73C127.89,2.94,128.55,1.69,127.29.89Z"/><path class="cls-1" d="M128.53,4a2.62,2.62,0,0,0,1.47-.4,2.62,2.62,0,0,0-1.47-.4A.4.4,0,0,0,128.53,4Z"/><rect class="cls-1" x="73.51" y="3.44" width="50.54" height="0.35"/><rect class="cls-1" x="6.01" y="3.44" width="50.54" height="0.35"/></svg>