<svg id="Calque_1" data-name="Calque 1" xmlns="http://www.w3.org/2000/svg" viewBox="0 0 50 50"><defs><style>.cls-1{fill:none;}.cls-2{fill:#df5d3b;fill-rule:evenodd;}</style></defs><rect class="cls-1" x="2.13" y="2.13" width="45.74" height="45.74"/><path class="cls-2" d="M8.93,17.14l-.87,2,3,1.27a10,10,0,0,1,.41-1c.15-.35.25-.66.41-1Zm29.91,3.3,3.1-1.22-.81-2L38,18.46a7.88,7.88,0,0,1,.81,2Zm-18.4-9.29L19.12,8.06l-2,.81L18.46,12a11.07,11.07,0,0,1,2-.82Zm15.62,4.26,5.88-5.83L40.42,8.06,34.53,14a14.19,14.19,0,0,1,1.53,1.46ZM15.42,14,9.58,8.06,8.06,9.58l5.83,5.88c.51-.55,1-1.06,1.53-1.51ZM39.56,26.12h8.31V23.93H39.56a20,20,0,0,1,0,2.19ZM10.39,23.93,2.13,24v2.13h8.26a16,16,0,0,1,0-2.19ZM26,10.45V2.13H23.88v8.32a12.63,12.63,0,0,1,2.13,0ZM38,31.59l3,1.32.87-2-3.1-1.32a8.2,8.2,0,0,1-.35,1c-.15.36-.31.66-.46,1ZM8.87,32.81l3.05-1.22c-.31-.66-.61-1.37-.87-2l-3,1.22Zm23.89,8.32-1.22-3.05a17.69,17.69,0,0,1-2,.87l1.21,3Zm1.82-5,5.84,5.83,1.52-1.52-5.88-5.83c-.46.5-1,1.06-1.48,1.52Zm-25,5.83,5.84-5.83c-.51-.46-1-1-1.53-1.52L8.06,40.42Zm14.3-2.34v8.27h2.18V39.6a13.22,13.22,0,0,1-2.18,0Zm-5.47-1.52-1.32,3,2,.86,1.27-3a10.86,10.86,0,0,1-1-.41,6.59,6.59,0,0,1-1-.41ZM29.87,13.33a12.7,12.7,0,1,0,6.79,16.59,12.69,12.69,0,0,0-6.79-16.59Zm3-4.41-2-.86-1.27,3.09a9.52,9.52,0,0,1,1,.36c.35.15.71.31,1,.46Z"/></svg>